<svg xmlns="http://www.w3.org/2000/svg" viewBox="0 0 60 34" fill="none">
  <path d="M14 4c-4 0-6 2-6 5.5v4c0 2-1.5 3.5-5 3.5 3.5 0 5 1.5 5 3.5v4c0 3.5 2 5.5 6 5.5"
        stroke="#1e293b" stroke-width="3" stroke-linecap="round" fill="none"/>
  <path d="M32 4c4 0 6 2 6 5.5v4c0 2 1.5 3.5 5 3.5-3.5 0-5 1.5-5 3.5v4c0 3.5-2 5.5-6 5.5"
        stroke="#1e293b" stroke-width="3" stroke-linecap="round" fill="none"/>
  <path d="M49 16L57 8m0 0h-6m6 0v6"
        stroke="#f97316" stroke-width="3" stroke-linecap="round" stroke-linejoin="round"/>
</svg>
